<mxfile host="Electron" agent="Mozilla/5.0 (Windows NT 10.0; Win64; x64) AppleWebKit/537.36 (KHTML, like Gecko) draw.io/25.0.2 Chrome/128.0.6613.186 Electron/32.2.5 Safari/537.36" version="25.0.2">
  <diagram name="Page-1" id="7eEOpBPnF_lIj2b8i77T">
    <mxGraphModel dx="989" dy="665" grid="1" gridSize="10" guides="1" tooltips="1" connect="1" arrows="1" fold="1" page="1" pageScale="1" pageWidth="850" pageHeight="1100" math="0" shadow="0">
      <root>
        <mxCell id="0" />
        <mxCell id="1" parent="0" />
        <mxCell id="dkBpNIxyrkuNh5p_6MDi-13" value="" style="edgeStyle=orthogonalEdgeStyle;rounded=0;orthogonalLoop=1;jettySize=auto;html=1;" edge="1" parent="1" source="dkBpNIxyrkuNh5p_6MDi-1" target="dkBpNIxyrkuNh5p_6MDi-3">
          <mxGeometry relative="1" as="geometry" />
        </mxCell>
        <mxCell id="dkBpNIxyrkuNh5p_6MDi-1" value="M" style="ellipse;whiteSpace=wrap;html=1;aspect=fixed;" vertex="1" parent="1">
          <mxGeometry x="120" y="240" width="40" height="40" as="geometry" />
        </mxCell>
        <mxCell id="dkBpNIxyrkuNh5p_6MDi-15" value="" style="edgeStyle=orthogonalEdgeStyle;rounded=0;orthogonalLoop=1;jettySize=auto;html=1;" edge="1" parent="1" source="dkBpNIxyrkuNh5p_6MDi-4" target="dkBpNIxyrkuNh5p_6MDi-9">
          <mxGeometry relative="1" as="geometry" />
        </mxCell>
        <mxCell id="dkBpNIxyrkuNh5p_6MDi-4" value="i = 24" style="rounded=0;whiteSpace=wrap;html=1;" vertex="1" parent="1">
          <mxGeometry x="280" y="240" width="40" height="40" as="geometry" />
        </mxCell>
        <mxCell id="dkBpNIxyrkuNh5p_6MDi-14" value="" style="edgeStyle=orthogonalEdgeStyle;rounded=0;orthogonalLoop=1;jettySize=auto;html=1;" edge="1" parent="1" source="dkBpNIxyrkuNh5p_6MDi-3" target="dkBpNIxyrkuNh5p_6MDi-4">
          <mxGeometry relative="1" as="geometry" />
        </mxCell>
        <mxCell id="dkBpNIxyrkuNh5p_6MDi-3" value="i = 2" style="rounded=0;whiteSpace=wrap;html=1;" vertex="1" parent="1">
          <mxGeometry x="200" y="240" width="40" height="40" as="geometry" />
        </mxCell>
        <mxCell id="dkBpNIxyrkuNh5p_6MDi-9" value="Spindle" style="rounded=0;whiteSpace=wrap;html=1;" vertex="1" parent="1">
          <mxGeometry x="360" y="250" width="80" height="20" as="geometry" />
        </mxCell>
        <mxCell id="dkBpNIxyrkuNh5p_6MDi-10" value="" style="endArrow=none;html=1;rounded=0;" edge="1" parent="1">
          <mxGeometry width="50" height="50" relative="1" as="geometry">
            <mxPoint x="480" y="280" as="sourcePoint" />
            <mxPoint x="560" y="200" as="targetPoint" />
          </mxGeometry>
        </mxCell>
        <mxCell id="dkBpNIxyrkuNh5p_6MDi-11" value="" style="endArrow=none;html=1;rounded=0;" edge="1" parent="1">
          <mxGeometry width="50" height="50" relative="1" as="geometry">
            <mxPoint x="480" y="200" as="sourcePoint" />
            <mxPoint x="560" y="280" as="targetPoint" />
          </mxGeometry>
        </mxCell>
        <mxCell id="dkBpNIxyrkuNh5p_6MDi-12" value="" style="endArrow=none;html=1;rounded=0;" edge="1" parent="1">
          <mxGeometry width="50" height="50" relative="1" as="geometry">
            <mxPoint x="240" y="160" as="sourcePoint" />
            <mxPoint x="360" y="160" as="targetPoint" />
          </mxGeometry>
        </mxCell>
        <mxCell id="dkBpNIxyrkuNh5p_6MDi-16" value="" style="edgeStyle=orthogonalEdgeStyle;rounded=0;orthogonalLoop=1;jettySize=auto;html=1;" edge="1" parent="1" source="dkBpNIxyrkuNh5p_6MDi-9">
          <mxGeometry relative="1" as="geometry">
            <mxPoint x="330" y="270" as="sourcePoint" />
            <mxPoint x="480" y="260" as="targetPoint" />
          </mxGeometry>
        </mxCell>
        <mxCell id="dkBpNIxyrkuNh5p_6MDi-19" value="" style="endArrow=classic;html=1;rounded=0;" edge="1" parent="1">
          <mxGeometry width="50" height="50" relative="1" as="geometry">
            <mxPoint x="720" y="920" as="sourcePoint" />
            <mxPoint x="720" y="720" as="targetPoint" />
          </mxGeometry>
        </mxCell>
        <mxCell id="dkBpNIxyrkuNh5p_6MDi-21" value="L[1] = 300" style="edgeLabel;html=1;align=center;verticalAlign=middle;resizable=0;points=[];" vertex="1" connectable="0" parent="dkBpNIxyrkuNh5p_6MDi-19">
          <mxGeometry x="-0.2" relative="1" as="geometry">
            <mxPoint x="-40" y="-100" as="offset" />
          </mxGeometry>
        </mxCell>
        <mxCell id="dkBpNIxyrkuNh5p_6MDi-22" value="" style="endArrow=classic;html=1;rounded=0;" edge="1" parent="1">
          <mxGeometry width="50" height="50" relative="1" as="geometry">
            <mxPoint x="720" y="960" as="sourcePoint" />
            <mxPoint x="720" y="920" as="targetPoint" />
          </mxGeometry>
        </mxCell>
        <mxCell id="dkBpNIxyrkuNh5p_6MDi-23" value="L[0] = 50" style="edgeLabel;html=1;align=center;verticalAlign=middle;resizable=0;points=[];" vertex="1" connectable="0" parent="dkBpNIxyrkuNh5p_6MDi-22">
          <mxGeometry x="-0.2" relative="1" as="geometry">
            <mxPoint x="-40" y="-24" as="offset" />
          </mxGeometry>
        </mxCell>
        <mxCell id="dkBpNIxyrkuNh5p_6MDi-26" value="" style="endArrow=classic;html=1;rounded=0;" edge="1" parent="1">
          <mxGeometry width="50" height="50" relative="1" as="geometry">
            <mxPoint x="420" y="720" as="sourcePoint" />
            <mxPoint x="420" y="700" as="targetPoint" />
          </mxGeometry>
        </mxCell>
        <mxCell id="dkBpNIxyrkuNh5p_6MDi-27" value="L[2] = 325" style="edgeLabel;html=1;align=center;verticalAlign=middle;resizable=0;points=[];" vertex="1" connectable="0" parent="dkBpNIxyrkuNh5p_6MDi-26">
          <mxGeometry x="-0.2" relative="1" as="geometry">
            <mxPoint x="-50" y="-2" as="offset" />
          </mxGeometry>
        </mxCell>
        <mxCell id="dkBpNIxyrkuNh5p_6MDi-28" value="" style="endArrow=classic;html=1;rounded=0;" edge="1" parent="1">
          <mxGeometry width="50" height="50" relative="1" as="geometry">
            <mxPoint x="420" y="700" as="sourcePoint" />
            <mxPoint x="420" y="680" as="targetPoint" />
          </mxGeometry>
        </mxCell>
        <mxCell id="dkBpNIxyrkuNh5p_6MDi-29" value="L[3] = 350" style="edgeLabel;html=1;align=center;verticalAlign=middle;resizable=0;points=[];" vertex="1" connectable="0" parent="dkBpNIxyrkuNh5p_6MDi-28">
          <mxGeometry x="-0.2" relative="1" as="geometry">
            <mxPoint x="-50" y="-12" as="offset" />
          </mxGeometry>
        </mxCell>
        <mxCell id="dkBpNIxyrkuNh5p_6MDi-30" value="" style="endArrow=classic;html=1;rounded=0;" edge="1" parent="1">
          <mxGeometry width="50" height="50" relative="1" as="geometry">
            <mxPoint x="750" y="680" as="sourcePoint" />
            <mxPoint x="750" y="900" as="targetPoint" />
          </mxGeometry>
        </mxCell>
        <mxCell id="dkBpNIxyrkuNh5p_6MDi-31" value="L[4] = 75" style="edgeLabel;html=1;align=center;verticalAlign=middle;resizable=0;points=[];" vertex="1" connectable="0" parent="dkBpNIxyrkuNh5p_6MDi-30">
          <mxGeometry x="-0.2" relative="1" as="geometry">
            <mxPoint x="30" y="112" as="offset" />
          </mxGeometry>
        </mxCell>
        <mxCell id="dkBpNIxyrkuNh5p_6MDi-32" value="" style="endArrow=classic;html=1;rounded=0;" edge="1" parent="1">
          <mxGeometry width="50" height="50" relative="1" as="geometry">
            <mxPoint x="750" y="900" as="sourcePoint" />
            <mxPoint x="750" y="920" as="targetPoint" />
          </mxGeometry>
        </mxCell>
        <mxCell id="dkBpNIxyrkuNh5p_6MDi-33" value="L[5] = 50" style="edgeLabel;html=1;align=center;verticalAlign=middle;resizable=0;points=[];" vertex="1" connectable="0" parent="dkBpNIxyrkuNh5p_6MDi-32">
          <mxGeometry x="-0.2" relative="1" as="geometry">
            <mxPoint x="30" y="12" as="offset" />
          </mxGeometry>
        </mxCell>
        <mxCell id="dkBpNIxyrkuNh5p_6MDi-34" value="" style="endArrow=classic;html=1;rounded=0;" edge="1" parent="1">
          <mxGeometry width="50" height="50" relative="1" as="geometry">
            <mxPoint x="760" y="960" as="sourcePoint" />
            <mxPoint x="720" y="960" as="targetPoint" />
          </mxGeometry>
        </mxCell>
        <mxCell id="dkBpNIxyrkuNh5p_6MDi-35" value="T[0] = 50" style="edgeLabel;html=1;align=center;verticalAlign=middle;resizable=0;points=[];" vertex="1" connectable="0" parent="dkBpNIxyrkuNh5p_6MDi-34">
          <mxGeometry x="-0.2" relative="1" as="geometry">
            <mxPoint x="-4" y="20" as="offset" />
          </mxGeometry>
        </mxCell>
        <mxCell id="dkBpNIxyrkuNh5p_6MDi-36" value="" style="endArrow=classic;html=1;rounded=0;" edge="1" parent="1">
          <mxGeometry width="50" height="50" relative="1" as="geometry">
            <mxPoint x="720" y="720" as="sourcePoint" />
            <mxPoint x="440" y="720" as="targetPoint" />
          </mxGeometry>
        </mxCell>
        <mxCell id="dkBpNIxyrkuNh5p_6MDi-37" value="T[1] = 400" style="edgeLabel;html=1;align=center;verticalAlign=middle;resizable=0;points=[];" vertex="1" connectable="0" parent="dkBpNIxyrkuNh5p_6MDi-36">
          <mxGeometry x="-0.2" relative="1" as="geometry">
            <mxPoint x="-48" y="20" as="offset" />
          </mxGeometry>
        </mxCell>
        <mxCell id="dkBpNIxyrkuNh5p_6MDi-38" value="" style="endArrow=classic;html=1;rounded=0;" edge="1" parent="1">
          <mxGeometry width="50" height="50" relative="1" as="geometry">
            <mxPoint x="440" y="720" as="sourcePoint" />
            <mxPoint x="420" y="720" as="targetPoint" />
          </mxGeometry>
        </mxCell>
        <mxCell id="dkBpNIxyrkuNh5p_6MDi-39" value="T[2] = 425" style="edgeLabel;html=1;align=center;verticalAlign=middle;resizable=0;points=[];" vertex="1" connectable="0" parent="dkBpNIxyrkuNh5p_6MDi-38">
          <mxGeometry x="-0.2" relative="1" as="geometry">
            <mxPoint x="-22" y="20" as="offset" />
          </mxGeometry>
        </mxCell>
        <mxCell id="dkBpNIxyrkuNh5p_6MDi-40" value="" style="endArrow=classic;html=1;rounded=0;" edge="1" parent="1">
          <mxGeometry width="50" height="50" relative="1" as="geometry">
            <mxPoint x="420" y="680" as="sourcePoint" />
            <mxPoint x="720" y="680" as="targetPoint" />
          </mxGeometry>
        </mxCell>
        <mxCell id="dkBpNIxyrkuNh5p_6MDi-41" value="T[3] = 50" style="edgeLabel;html=1;align=center;verticalAlign=middle;resizable=0;points=[];" vertex="1" connectable="0" parent="dkBpNIxyrkuNh5p_6MDi-40">
          <mxGeometry x="-0.2" relative="1" as="geometry">
            <mxPoint x="180" y="-20" as="offset" />
          </mxGeometry>
        </mxCell>
        <mxCell id="dkBpNIxyrkuNh5p_6MDi-42" value="" style="endArrow=none;dashed=1;html=1;dashPattern=1 3;strokeWidth=2;rounded=0;" edge="1" parent="1">
          <mxGeometry width="50" height="50" relative="1" as="geometry">
            <mxPoint x="720" y="680" as="sourcePoint" />
            <mxPoint x="750" y="680" as="targetPoint" />
          </mxGeometry>
        </mxCell>
        <mxCell id="dkBpNIxyrkuNh5p_6MDi-43" value="" style="endArrow=none;dashed=1;html=1;dashPattern=1 3;strokeWidth=2;rounded=0;" edge="1" parent="1">
          <mxGeometry width="50" height="50" relative="1" as="geometry">
            <mxPoint x="720" y="920" as="sourcePoint" />
            <mxPoint x="750" y="920" as="targetPoint" />
          </mxGeometry>
        </mxCell>
        <mxCell id="dkBpNIxyrkuNh5p_6MDi-44" value="" style="endArrow=none;dashed=1;html=1;dashPattern=1 3;strokeWidth=2;rounded=0;" edge="1" parent="1">
          <mxGeometry width="50" height="50" relative="1" as="geometry">
            <mxPoint x="720" y="900" as="sourcePoint" />
            <mxPoint x="750" y="900" as="targetPoint" />
          </mxGeometry>
        </mxCell>
      </root>
    </mxGraphModel>
  </diagram>
</mxfile>
